Patient5_TMGait_0pt45_1_left_14_EMG.mot
version=1
nRows=26
nColumns=33
inDegrees=no
endheader
time	1LAddLong	2LGlutMax	3LGlutMed	4LIliopsoas	5LSemiMemb	6LBicFemLong	7LRecFem	8LTensFascLat	9LVastMed	10LVasLat	11LGasMed	12lGasLat	13LTibAnt	14LPeroneusLong	15LSol	16LTibPost	17RAddLong	18RGlutMax	19RGlutMed	20RIliopsoas	21RSemiMemb	22RBicFemLong	23RRecFem	24RTensFascLat	25RVastMed	26RVasLat	27RGasMed	28RGasLat	29RTibAnt	30RPeroneusLong	31RSol	32RTibPost
21.96	-0.097961	0.007935	0.013733	0.005798	0.035095	-0.012817	-0.015411	-0.006256	-0.001526	-0.000916	-0.002747	0.014954	-0.059052	0.014343	0.026855	-0.11581	-0.018921	-0.011902	0.68863	-0.074615	0.13733	0.067444	0.000458	-0.29541	0.082092	0.11246	0.012512	0.084839	-0.002899	-0.023499	0.038452	0.066071
21.961	-0.13168	0.001526	0.019073	-0.004425	0.025635	-0.009766	-0.007782	-0.013275	-0.005951	0.003662	-0.002899	0.009766	-0.04303	0.007019	0.022125	-0.013123	-0.017242	-0.03952	0.43579	-0.10376	-0.027771	0.032654	-0.000153	-0.13351	0.094299	0.05249	0.037994	0.002594	0.007477	-0.027771	0.040588	0.070953
21.962	-0.22385	0.000305	0.011292	-0.005951	0.026855	-0.017548	0.00061	-0.042572	0.001068	0.000153	0.003815	0.016632	-0.045929	0.020905	0.019684	-0.064545	-0.03418	-0.048065	0.31189	0.13229	-0.14877	-0.05661	-0.000763	0.041656	0.1149	0.022125	0.057526	-0.047302	-0.005646	-0.023346	0.020294	0.072784
21.963	-0.16693	0.005188	-0.018005	0.024414	0.037689	-0.00946	0	-0.0354	0.008545	-0.001526	-0.000916	0.020905	-0.054779	0.023804	0.019226	0.011292	-0.033264	-0.043488	0.44296	0.25467	-0.084534	-0.11063	-0.006866	0.01358	0.13062	-0.035095	0.015564	-0.15381	0.000305	-0.024109	0.003662	0.30243
21.964	-0.16068	0.003815	-0.018921	0.027618	0.039825	-0.010681	0.006866	-0.057983	0.021362	0.007629	-0.002594	0.020142	-0.031128	0.028687	0.016937	0.023651	-0.028534	-0.034332	0.62653	0.011139	-0.055847	-0.20783	-0.003815	-0.052032	0.11383	-0.008545	-0.047455	-0.18082	0.011292	-0.01297	-0.019379	0.061188
21.965	-0.22751	0.000305	-0.019226	-0.00885	0.027161	-0.009003	0.012512	-0.056	0.025787	-0.00061	-0.006409	0.023346	0.041656	0.03418	0.030975	-0.046234	-0.017548	-0.023651	0.61706	-0.065155	-0.12741	-0.054474	0.000305	-0.075531	0.11764	0.007477	-0.080872	-0.22858	0.014038	-0.032806	0.000458	0.010529
21.966	-0.22659	0.003967	-0.001831	-0.028381	0.027466	-0.009918	0.006714	-0.065613	0.018158	0.006561	-0.009308	0.024872	0.011597	0.022888	0.022278	-0.10941	-0.012512	-0.015259	0.14404	2.6917	-0.12009	0.10132	0.004578	-0.11047	0.10071	0.013428	-0.02594	-0.2121	-0.003815	-0.029755	-0.010071	-0.0177
21.967	-0.20813	0.003357	0.00061	-0.000916	0.033722	-0.028687	0.016632	-0.097046	0.018921	0.010681	-0.010071	0.029449	-0.018768	0.033722	0.027161	-0.001526	0.001526	-0.005951	-0.53909	0.9436	-0.11139	0.054932	-0.001526	-0.13412	0.075836	-0.054016	0.014191	-0.015106	-0.023651	-0.01236	0.00412	0.17288
21.968	-0.17059	0.003052	0.001526	0.02243	0.036011	0.004272	0.025024	-0.10407	0.017853	0.002441	-0.007019	0.018768	0.01297	0.020294	0.03006	0.071869	0.000458	-0.011902	-0.7222	-1.0217	-0.074921	-0.13016	-0.011597	-0.092316	0.016174	-0.13947	0.020142	0.2066	-0.038605	-0.001678	0.026398	-0.19134
21.969	-0.10971	0.006256	-0.016327	0.023499	0.041046	-0.005035	0.020599	-0.15579	0.020447	0.001373	0.002441	0.01358	0.067444	0.010986	0.032196	0.051117	-0.006409	-0.016632	-0.67017	-0.1654	-0.094147	-0.13306	-0.007782	0.091553	-0.011902	-0.13962	0.030975	0.24841	-0.049286	-0.001678	-0.019073	0.08194
21.97	-0.12726	0.000305	-0.017548	-0.14175	0.047302	-0.014801	0.024719	-0.15839	0.006104	-0.001068	0.002899	0.007629	0.095825	-0.00061	0.040741	0.058746	-0.00473	-0.015411	-0.4184	-0.047913	-0.12634	-0.043793	-0.00946	0.19882	-0.030823	0.034943	0.019531	0.20523	-0.05127	-0.002289	-0.0737	-0.17227
21.971	-0.23331	0.007782	-0.016174	-0.075226	0.040894	-0.009155	0.022736	-0.16312	0.013123	0.002289	0.005188	0.006409	0.1091	-0.010529	0.042419	0.045013	0.003967	-0.014954	-0.22614	-1.0318	-0.1445	0.15121	-0.022278	0.19836	-0.03952	0.18265	-0.060425	0.074005	-0.029602	-0.011597	-0.085144	-0.19913
21.972	-0.12787	0	-0.015869	-0.026245	0.044861	-0.02182	-0.009613	-0.17654	0.018616	-0.006561	0.019073	0.006409	0.15823	-0.001678	0.045319	0.048523	0.0354	-0.019989	-0.28519	-0.95322	-0.15549	0.21454	-0.014954	0.11871	-0.028687	0.24719	-0.037842	0.007324	0.019836	0.03006	-0.020905	0.014801
21.973	-0.02594	0.003815	0.011902	0.068359	0.02243	-0.025024	-0.009613	-0.18707	0.013885	-0.011444	0.018158	0.00885	0.121	0.009766	0.040894	-0.022125	0.034485	-0.012054	-0.42023	-0.31387	-0.2005	0.2623	-0.008545	0.10635	-0.007782	0.19989	-0.033875	-0.10086	0.036316	0.01297	0.023193	0.013733
21.974	0.012054	-0.001373	0.028229	0.013885	0.019836	-0.012817	0.000153	-0.16479	0.003357	-0.012817	-0.002289	0.021362	0.016785	0.02243	0.028076	0.13046	0.025635	-0.015869	-0.16144	0.22339	-0.29205	0.49255	0.012512	0.076752	-0.019836	0.036163	-0.046997	-0.16647	0.002136	-0.028687	0.052643	0.059509
21.975	0.09552	0.001526	0.032501	0.018921	0.014191	-0.014191	0.010376	-0.19394	0.003204	0.000458	-0.011139	0.02121	-0.006561	0.020599	0.025177	0.035248	0.011444	-0.010681	0.22873	-0.177	-0.1828	0.44617	0.00061	0.025177	-0.059967	-0.10544	-0.005035	-0.071259	-0.017853	-0.023041	0.07309	0.036316
21.976	0.11627	0.000305	0.028381	0.017548	0.012665	-0.02655	0.02121	-0.22171	0	0.001984	-0.012054	0.018921	-0.038147	0.022583	0.027618	0.029144	0.001373	0.002747	0.067902	-0.50034	-0.037994	0.27954	-0.010681	0.0737	-0.092163	-0.21088	0.030212	-0.018768	0.006409	-0.019073	0.048065	0.044098
21.977	0.1619	0.000763	0.028687	0.016174	0.01709	-0.027466	0.002747	-0.21072	-0.007782	0.001526	-0.014648	0.02121	-0.065155	0.02594	0.023041	-0.16068	0.000763	0.015564	0.14069	0.050659	0.14816	0.18982	-0.007782	0.023804	-0.024109	-0.16083	0.013428	0.021515	0.00473	-0.02121	0.06012	0.042267
21.978	0.15701	0.000305	0.024414	-0.012054	0.015869	-0.023041	0.016327	-0.21164	-0.00946	0.008087	-0.010529	0.024872	-0.048523	0.023499	0.01358	-0.039368	0.006866	0.021667	0.3418	0.16525	0.53711	0.10757	-0.001831	-0.082855	0.030823	-0.096741	-0.060883	0.036316	0.006256	-0.027466	0.057678	0.039215
21.979	0.15488	0.009613	0.008392	-0.021667	0.024261	-0.004425	0.033112	-0.23041	-0.019379	0.011292	-0.00946	0.013275	-0.062408	0.014648	-0.000305	-0.069733	0.014191	0.011597	-0.058441	-0.34561	0.49927	0.028229	-0.003815	-0.05661	0.097504	-0.07843	-0.072327	0.002441	0.001526	-0.037231	0.042572	0.042725
21.98	0.16159	-0.001984	0.011597	-0.037842	0.022278	-0.012512	0.027161	-0.24277	-0.01709	0.002594	-0.009155	0.015869	-0.070343	0.006866	-0.005493	0.016174	-0.009918	-0.002899	-0.60684	-0.53955	0.22369	-0.019073	-0.007172	0.058746	0.13367	-0.046997	-0.000916	-0.1059	-0.001221	-0.038605	0.033722	0.036163
21.981	0.11826	0.004883	0.021973	-0.029602	0.033264	-0.028076	0.03067	-0.26718	-0.006561	-0.002136	-0.007629	0.018311	-0.063171	0.009003	0.002441	0.051117	0.005951	0.002289	-0.63232	-0.14389	0.033264	-0.02594	-0.010376	0.049744	0.11948	0.060883	0.015564	-0.10635	-0.007172	-0.045776	0.027771	0.033722
21.982	0.03418	0.007477	0.010986	-0.018311	0.019684	-0.027008	0.033264	-0.27389	-0.000458	-0.01358	-0.009003	0.006104	-0.010071	0.015869	0.010986	-0.11444	0.01297	0.005798	-0.49286	-0.073242	-0.10513	-0.034943	-0.007324	0.084991	0.1059	0.014038	-0.017242	0.003052	-0.007629	-0.040283	0.024719	0.043945
21.983	0.024872	0.002594	0.018311	-0.036621	0.013428	-0.019836	0.019836	-0.25177	0.005646	-0.015411	-0.002594	0.011139	-0.027313	0.024719	0.009918	-0.10834	-0.031738	0.012207	-0.5632	-0.23224	-0.1915	-0.070953	-0.009003	0.050964	0.11734	-0.050201	-0.020599	0.016632	-0.007172	-0.034332	0.022736	0.061035
21.984	0.020142	0.009918	0.009766	-0.09613	0.019379	-0.014648	-0.00412	-0.28107	0.00824	-0.013885	-0.006866	0.005798	-0.013428	0.018616	0.005493	-0.04425	-0.005188	0.021667	-0.26291	-0.20187	-0.10742	-0.16007	-0.007935	0.006714	0.13092	-0.048981	-0.002289	0.002899	-0.005646	-0.039978	0.011902	0.051727
21.985	0.013428	0.008698	0.018463	0.037231	0.026093	-0.009918	-0.015869	-0.26428	0.013275	-0.010071	-0.000916	0.009308	-0.004578	0.027161	0.014648	0.051575	0.010986	0.029449	0.11124	0.27741	-0.021057	-0.22553	-0.007324	-0.1033	0.088501	-0.084381	-0.034332	0.018616	-0.015259	-0.038757	0.007629	-0.012207
